<svg xmlns="http://www.w3.org/2000/svg" xmlns:xlink="http://www.w3.org/1999/xlink" width="500" zoomAndPan="magnify" viewBox="0 0 375 374.999991" height="500" preserveAspectRatio="xMidYMid meet" version="1.0"><defs><g/><clipPath id="e0213761d6"><path d="M 102.222656 66.726562 L 272.769531 66.726562 L 272.769531 237.273438 L 102.222656 237.273438 Z M 102.222656 66.726562 " clip-rule="nonzero"/></clipPath><clipPath id="515191565c"><path d="M 187.496094 237.273438 C 234.59375 237.273438 272.769531 199.097656 272.769531 152 C 272.769531 104.90625 234.59375 66.726562 187.496094 66.726562 C 140.402344 66.726562 102.222656 104.90625 102.222656 152 C 102.222656 199.097656 140.402344 237.273438 187.496094 237.273438 Z M 187.496094 237.273438 " clip-rule="nonzero"/></clipPath><clipPath id="131f914798"><path d="M 110.566406 75.070312 L 272.761719 75.070312 L 272.761719 237.265625 L 110.566406 237.265625 Z M 110.566406 75.070312 " clip-rule="nonzero"/></clipPath><clipPath id="f6434b2c71"><path d="M 191.664062 237.265625 C 236.453125 237.265625 272.761719 200.957031 272.761719 156.167969 C 272.761719 111.378906 236.453125 75.070312 191.664062 75.070312 C 146.875 75.070312 110.566406 111.378906 110.566406 156.167969 C 110.566406 200.957031 146.875 237.265625 191.664062 237.265625 Z M 191.664062 237.265625 " clip-rule="nonzero"/></clipPath><clipPath id="02088055fe"><path d="M 121.152344 85.65625 L 264.46875 85.65625 L 264.46875 228.972656 L 121.152344 228.972656 Z M 121.152344 85.65625 " clip-rule="nonzero"/></clipPath><clipPath id="5d5f0d6836"><path d="M 192.8125 228.972656 C 232.386719 228.972656 264.46875 196.890625 264.46875 157.316406 C 264.46875 117.738281 232.386719 85.65625 192.8125 85.65625 C 153.234375 85.65625 121.152344 117.738281 121.152344 157.316406 C 121.152344 196.890625 153.234375 228.972656 192.8125 228.972656 Z M 192.8125 228.972656 " clip-rule="nonzero"/></clipPath><clipPath id="876ed17975"><path d="M 121.148438 85.652344 L 257.449219 85.652344 L 257.449219 221.953125 L 121.148438 221.953125 Z M 121.148438 85.652344 " clip-rule="nonzero"/></clipPath><clipPath id="82ca1ba038"><path d="M 189.300781 221.953125 C 226.9375 221.953125 257.449219 191.441406 257.449219 153.804688 C 257.449219 116.164062 226.9375 85.652344 189.300781 85.652344 C 151.660156 85.652344 121.148438 116.164062 121.148438 153.804688 C 121.148438 191.441406 151.660156 221.953125 189.300781 221.953125 Z M 189.300781 221.953125 " clip-rule="nonzero"/></clipPath><clipPath id="d148aea4ca"><path d="M 136.894531 104.898438 L 235 104.898438 L 235 222.648438 L 136.894531 222.648438 Z M 136.894531 104.898438 " clip-rule="nonzero"/></clipPath></defs><g clip-path="url(#e0213761d6)"><g clip-path="url(#515191565c)"><path fill="#3e6606" d="M 272.769531 237.273438 L 102.222656 237.273438 L 102.222656 66.726562 L 272.769531 66.726562 Z M 272.769531 237.273438 " fill-opacity="1" fill-rule="nonzero"/></g></g><g clip-path="url(#131f914798)"><g clip-path="url(#f6434b2c71)"><path fill="#ffffff" d="M 272.761719 237.265625 L 110.566406 237.265625 L 110.566406 75.070312 L 272.761719 75.070312 Z M 272.761719 237.265625 " fill-opacity="1" fill-rule="nonzero"/></g></g><g clip-path="url(#02088055fe)"><g clip-path="url(#5d5f0d6836)"><path fill="#3e6606" d="M 264.46875 228.972656 L 121.152344 228.972656 L 121.152344 85.65625 L 264.46875 85.65625 Z M 264.46875 228.972656 " fill-opacity="1" fill-rule="nonzero"/></g></g><g clip-path="url(#876ed17975)"><g clip-path="url(#82ca1ba038)"><path fill="#ffffff" d="M 257.449219 221.953125 L 121.148438 221.953125 L 121.148438 85.652344 L 257.449219 85.652344 Z M 257.449219 221.953125 " fill-opacity="1" fill-rule="nonzero"/></g></g><g clip-path="url(#d148aea4ca)"><path fill="#3e6606" d="M 191.046875 194.1875 C 189.894531 195.675781 190.261719 196.488281 192.117188 196.617188 C 204.484375 196.332031 216.144531 190.789062 224.171875 181.375 C 232.199219 171.960938 235.808594 159.542969 234.109375 147.28125 C 221.21875 164.015625 190.46875 165.6875 187.019531 186.789062 C 186.078125 171.726562 185.605469 156.667969 187.125 141.660156 C 198.707031 125.65625 208.039062 117.527344 226.472656 111.382812 C 204.929688 108.113281 191.570312 116.453125 186.417969 136.324219 C 187.882812 120.167969 181.003906 110.101562 165.132812 104.898438 C 176.664062 113.523438 180.144531 124.011719 184.351562 138 C 183.253906 147.070312 182.625 156.222656 182.3125 165.347656 C 180.769531 157.582031 176.480469 150.46875 170.285156 145.136719 C 161.449219 137.578125 148.140625 134.15625 136.921875 137.265625 C 154.285156 146.417969 144.007812 176.171875 178.992188 175.230469 C 175.332031 163.855469 167.75 152.429688 156.089844 146.730469 C 166.441406 149.085938 174.992188 157.792969 179.75 167.597656 C 183.019531 174.289062 182.15625 182.082031 181.972656 189.453125 C 181.632812 203.546875 182.679688 213.585938 183.148438 227.679688 L 189.527344 227.601562 C 189.164062 216.488281 184.195312 195.023438 190.941406 186.578125 C 196.773438 179.285156 206.445312 171.597656 217.085938 167.882812 C 208.433594 173.191406 196.746094 184.617188 191.046875 194.1875 " fill-opacity="1" fill-rule="evenodd"/></g><g fill="#3e6606" fill-opacity="1"><g transform="translate(37.893839, 287.936508)"><g><path d="M 22.328125 -24.0625 L 22.328125 0 L 17.515625 0 L 17.515625 -10.234375 L 7.203125 -10.234375 L 7.203125 0 L 2.375 0 L 2.375 -24.0625 L 7.203125 -24.0625 L 7.203125 -14.171875 L 17.515625 -14.171875 L 17.515625 -24.0625 Z M 22.328125 -24.0625 "/></g></g></g><g fill="#3e6606" fill-opacity="1"><g transform="translate(62.605752, 287.936508)"><g><path d="M 10.859375 0.3125 C 9.015625 0.3125 7.359375 -0.09375 5.890625 -0.90625 C 4.421875 -1.726562 3.265625 -2.882812 2.421875 -4.375 C 1.585938 -5.875 1.171875 -7.597656 1.171875 -9.546875 C 1.171875 -11.503906 1.597656 -13.226562 2.453125 -14.71875 C 3.316406 -16.207031 4.492188 -17.359375 5.984375 -18.171875 C 7.484375 -18.992188 9.15625 -19.40625 11 -19.40625 C 12.832031 -19.40625 14.492188 -18.992188 15.984375 -18.171875 C 17.484375 -17.359375 18.660156 -16.207031 19.515625 -14.71875 C 20.378906 -13.226562 20.8125 -11.503906 20.8125 -9.546875 C 20.8125 -7.597656 20.367188 -5.875 19.484375 -4.375 C 18.609375 -2.882812 17.414062 -1.726562 15.90625 -0.90625 C 14.40625 -0.09375 12.722656 0.3125 10.859375 0.3125 Z M 10.859375 -3.890625 C 11.734375 -3.890625 12.554688 -4.101562 13.328125 -4.53125 C 14.097656 -4.957031 14.710938 -5.59375 15.171875 -6.4375 C 15.628906 -7.289062 15.859375 -8.328125 15.859375 -9.546875 C 15.859375 -11.359375 15.378906 -12.753906 14.421875 -13.734375 C 13.472656 -14.710938 12.304688 -15.203125 10.921875 -15.203125 C 9.546875 -15.203125 8.390625 -14.710938 7.453125 -13.734375 C 6.523438 -12.753906 6.0625 -11.359375 6.0625 -9.546875 C 6.0625 -7.734375 6.515625 -6.335938 7.421875 -5.359375 C 8.335938 -4.378906 9.484375 -3.890625 10.859375 -3.890625 Z M 10.859375 -3.890625 "/></g></g></g><g fill="#3e6606" fill-opacity="1"><g transform="translate(84.594871, 287.936508)"><g><path d="M 26.09375 -19.375 C 28.4375 -19.375 30.328125 -18.65625 31.765625 -17.21875 C 33.203125 -15.78125 33.921875 -13.773438 33.921875 -11.203125 L 33.921875 0 L 29.09375 0 L 29.09375 -10.546875 C 29.09375 -12.035156 28.710938 -13.175781 27.953125 -13.96875 C 27.191406 -14.769531 26.160156 -15.171875 24.859375 -15.171875 C 23.546875 -15.171875 22.503906 -14.769531 21.734375 -13.96875 C 20.960938 -13.175781 20.578125 -12.035156 20.578125 -10.546875 L 20.578125 0 L 15.75 0 L 15.75 -10.546875 C 15.75 -12.035156 15.367188 -13.175781 14.609375 -13.96875 C 13.859375 -14.769531 12.828125 -15.171875 11.515625 -15.171875 C 10.179688 -15.171875 9.128906 -14.769531 8.359375 -13.96875 C 7.585938 -13.175781 7.203125 -12.035156 7.203125 -10.546875 L 7.203125 0 L 2.375 0 L 2.375 -19.09375 L 7.203125 -19.09375 L 7.203125 -16.78125 C 7.828125 -17.59375 8.625 -18.226562 9.59375 -18.6875 C 10.570312 -19.144531 11.648438 -19.375 12.828125 -19.375 C 14.316406 -19.375 15.644531 -19.054688 16.8125 -18.421875 C 17.988281 -17.785156 18.898438 -16.882812 19.546875 -15.71875 C 20.160156 -16.820312 21.0625 -17.707031 22.25 -18.375 C 23.4375 -19.039062 24.71875 -19.375 26.09375 -19.375 Z M 26.09375 -19.375 "/></g></g></g><g fill="#3e6606" fill-opacity="1"><g transform="translate(120.714934, 287.936508)"><g><path d="M 20.125 -9.96875 C 20.125 -9.269531 20.078125 -8.644531 19.984375 -8.09375 L 6.03125 -8.09375 C 6.144531 -6.71875 6.625 -5.640625 7.46875 -4.859375 C 8.320312 -4.078125 9.367188 -3.6875 10.609375 -3.6875 C 12.410156 -3.6875 13.6875 -4.457031 14.4375 -6 L 19.640625 -6 C 19.085938 -4.15625 18.03125 -2.640625 16.46875 -1.453125 C 14.90625 -0.273438 12.988281 0.3125 10.71875 0.3125 C 8.882812 0.3125 7.234375 -0.09375 5.765625 -0.90625 C 4.304688 -1.726562 3.171875 -2.882812 2.359375 -4.375 C 1.546875 -5.875 1.140625 -7.597656 1.140625 -9.546875 C 1.140625 -11.523438 1.539062 -13.257812 2.34375 -14.75 C 3.144531 -16.25 4.269531 -17.398438 5.71875 -18.203125 C 7.164062 -19.003906 8.832031 -19.40625 10.71875 -19.40625 C 12.53125 -19.40625 14.15625 -19.015625 15.59375 -18.234375 C 17.03125 -17.453125 18.144531 -16.34375 18.9375 -14.90625 C 19.726562 -13.46875 20.125 -11.820312 20.125 -9.96875 Z M 15.125 -11.34375 C 15.101562 -12.582031 14.65625 -13.570312 13.78125 -14.3125 C 12.914062 -15.0625 11.847656 -15.4375 10.578125 -15.4375 C 9.390625 -15.4375 8.382812 -15.070312 7.5625 -14.34375 C 6.75 -13.625 6.25 -12.625 6.0625 -11.34375 Z M 15.125 -11.34375 "/></g></g></g><g fill="#3e6606" fill-opacity="1"><g transform="translate(141.980274, 287.936508)"><g/></g></g><g fill="#3e6606" fill-opacity="1"><g transform="translate(150.183115, 287.936508)"><g><path d="M 19.125 -16.828125 C 18.570312 -17.835938 17.8125 -18.601562 16.84375 -19.125 C 15.882812 -19.65625 14.765625 -19.921875 13.484375 -19.921875 C 12.054688 -19.921875 10.789062 -19.597656 9.6875 -18.953125 C 8.582031 -18.316406 7.71875 -17.398438 7.09375 -16.203125 C 6.476562 -15.003906 6.171875 -13.625 6.171875 -12.0625 C 6.171875 -10.457031 6.484375 -9.054688 7.109375 -7.859375 C 7.742188 -6.660156 8.625 -5.738281 9.75 -5.09375 C 10.875 -4.457031 12.1875 -4.140625 13.6875 -4.140625 C 15.519531 -4.140625 17.019531 -4.625 18.1875 -5.59375 C 19.363281 -6.570312 20.140625 -7.9375 20.515625 -9.6875 L 12.234375 -9.6875 L 12.234375 -13.375 L 25.265625 -13.375 L 25.265625 -9.171875 C 24.941406 -7.492188 24.25 -5.941406 23.1875 -4.515625 C 22.132812 -3.085938 20.773438 -1.941406 19.109375 -1.078125 C 17.441406 -0.222656 15.578125 0.203125 13.515625 0.203125 C 11.191406 0.203125 9.09375 -0.316406 7.21875 -1.359375 C 5.34375 -2.410156 3.867188 -3.863281 2.796875 -5.71875 C 1.734375 -7.582031 1.203125 -9.695312 1.203125 -12.0625 C 1.203125 -14.425781 1.734375 -16.546875 2.796875 -18.421875 C 3.867188 -20.296875 5.34375 -21.753906 7.21875 -22.796875 C 9.09375 -23.847656 11.179688 -24.375 13.484375 -24.375 C 16.191406 -24.375 18.546875 -23.710938 20.546875 -22.390625 C 22.546875 -21.066406 23.921875 -19.210938 24.671875 -16.828125 Z M 19.125 -16.828125 "/></g></g></g><g fill="#3e6606" fill-opacity="1"><g transform="translate(176.652778, 287.936508)"><g><path d="M 1.140625 -9.609375 C 1.140625 -11.546875 1.523438 -13.257812 2.296875 -14.75 C 3.066406 -16.25 4.109375 -17.398438 5.421875 -18.203125 C 6.742188 -19.003906 8.222656 -19.40625 9.859375 -19.40625 C 11.285156 -19.40625 12.53125 -19.117188 13.59375 -18.546875 C 14.664062 -17.972656 15.523438 -17.25 16.171875 -16.375 L 16.171875 -19.09375 L 21.03125 -19.09375 L 21.03125 0 L 16.171875 0 L 16.171875 -2.796875 C 15.546875 -1.898438 14.6875 -1.15625 13.59375 -0.5625 C 12.5 0.0195312 11.242188 0.3125 9.828125 0.3125 C 8.210938 0.3125 6.742188 -0.0976562 5.421875 -0.921875 C 4.109375 -1.753906 3.066406 -2.921875 2.296875 -4.421875 C 1.523438 -5.929688 1.140625 -7.660156 1.140625 -9.609375 Z M 16.171875 -9.546875 C 16.171875 -10.722656 15.9375 -11.726562 15.46875 -12.5625 C 15.007812 -13.40625 14.390625 -14.050781 13.609375 -14.5 C 12.828125 -14.945312 11.988281 -15.171875 11.09375 -15.171875 C 10.195312 -15.171875 9.367188 -14.953125 8.609375 -14.515625 C 7.859375 -14.078125 7.242188 -13.4375 6.765625 -12.59375 C 6.296875 -11.757812 6.0625 -10.765625 6.0625 -9.609375 C 6.0625 -8.460938 6.296875 -7.457031 6.765625 -6.59375 C 7.242188 -5.738281 7.867188 -5.078125 8.640625 -4.609375 C 9.410156 -4.148438 10.226562 -3.921875 11.09375 -3.921875 C 11.988281 -3.921875 12.828125 -4.144531 13.609375 -4.59375 C 14.390625 -5.050781 15.007812 -5.695312 15.46875 -6.53125 C 15.9375 -7.375 16.171875 -8.378906 16.171875 -9.546875 Z M 16.171875 -9.546875 "/></g></g></g><g fill="#3e6606" fill-opacity="1"><g transform="translate(200.020523, 287.936508)"><g><path d="M 7.203125 -16.125 C 7.828125 -17.132812 8.640625 -17.925781 9.640625 -18.5 C 10.640625 -19.082031 11.78125 -19.375 13.0625 -19.375 L 13.0625 -14.296875 L 11.78125 -14.296875 C 10.269531 -14.296875 9.128906 -13.941406 8.359375 -13.234375 C 7.585938 -12.523438 7.203125 -11.285156 7.203125 -9.515625 L 7.203125 0 L 2.375 0 L 2.375 -19.09375 L 7.203125 -19.09375 Z M 7.203125 -16.125 "/></g></g></g><g fill="#3e6606" fill-opacity="1"><g transform="translate(213.944657, 287.936508)"><g><path d="M 1.140625 -9.609375 C 1.140625 -11.546875 1.523438 -13.257812 2.296875 -14.75 C 3.066406 -16.25 4.113281 -17.398438 5.4375 -18.203125 C 6.769531 -19.003906 8.253906 -19.40625 9.890625 -19.40625 C 11.128906 -19.40625 12.3125 -19.132812 13.4375 -18.59375 C 14.5625 -18.050781 15.457031 -17.332031 16.125 -16.4375 L 16.125 -25.5 L 21.03125 -25.5 L 21.03125 0 L 16.125 0 L 16.125 -2.828125 C 15.53125 -1.878906 14.691406 -1.117188 13.609375 -0.546875 C 12.535156 0.0234375 11.285156 0.3125 9.859375 0.3125 C 8.242188 0.3125 6.769531 -0.0976562 5.4375 -0.921875 C 4.113281 -1.753906 3.066406 -2.921875 2.296875 -4.421875 C 1.523438 -5.929688 1.140625 -7.660156 1.140625 -9.609375 Z M 16.171875 -9.546875 C 16.171875 -10.722656 15.9375 -11.726562 15.46875 -12.5625 C 15.007812 -13.40625 14.390625 -14.050781 13.609375 -14.5 C 12.828125 -14.945312 11.988281 -15.171875 11.09375 -15.171875 C 10.195312 -15.171875 9.367188 -14.953125 8.609375 -14.515625 C 7.859375 -14.078125 7.242188 -13.4375 6.765625 -12.59375 C 6.296875 -11.757812 6.0625 -10.765625 6.0625 -9.609375 C 6.0625 -8.460938 6.296875 -7.457031 6.765625 -6.59375 C 7.242188 -5.738281 7.867188 -5.078125 8.640625 -4.609375 C 9.410156 -4.148438 10.226562 -3.921875 11.09375 -3.921875 C 11.988281 -3.921875 12.828125 -4.144531 13.609375 -4.59375 C 14.390625 -5.050781 15.007812 -5.695312 15.46875 -6.53125 C 15.9375 -7.375 16.171875 -8.378906 16.171875 -9.546875 Z M 16.171875 -9.546875 "/></g></g></g><g fill="#3e6606" fill-opacity="1"><g transform="translate(237.312402, 287.936508)"><g><path d="M 20.125 -9.96875 C 20.125 -9.269531 20.078125 -8.644531 19.984375 -8.09375 L 6.03125 -8.09375 C 6.144531 -6.71875 6.625 -5.640625 7.46875 -4.859375 C 8.320312 -4.078125 9.367188 -3.6875 10.609375 -3.6875 C 12.410156 -3.6875 13.6875 -4.457031 14.4375 -6 L 19.640625 -6 C 19.085938 -4.15625 18.03125 -2.640625 16.46875 -1.453125 C 14.90625 -0.273438 12.988281 0.3125 10.71875 0.3125 C 8.882812 0.3125 7.234375 -0.09375 5.765625 -0.90625 C 4.304688 -1.726562 3.171875 -2.882812 2.359375 -4.375 C 1.546875 -5.875 1.140625 -7.597656 1.140625 -9.546875 C 1.140625 -11.523438 1.539062 -13.257812 2.34375 -14.75 C 3.144531 -16.25 4.269531 -17.398438 5.71875 -18.203125 C 7.164062 -19.003906 8.832031 -19.40625 10.71875 -19.40625 C 12.53125 -19.40625 14.15625 -19.015625 15.59375 -18.234375 C 17.03125 -17.453125 18.144531 -16.34375 18.9375 -14.90625 C 19.726562 -13.46875 20.125 -11.820312 20.125 -9.96875 Z M 15.125 -11.34375 C 15.101562 -12.582031 14.65625 -13.570312 13.78125 -14.3125 C 12.914062 -15.0625 11.847656 -15.4375 10.578125 -15.4375 C 9.390625 -15.4375 8.382812 -15.070312 7.5625 -14.34375 C 6.75 -13.625 6.25 -12.625 6.0625 -11.34375 Z M 15.125 -11.34375 "/></g></g></g><g fill="#3e6606" fill-opacity="1"><g transform="translate(258.577751, 287.936508)"><g><path d="M 12.953125 -19.375 C 15.234375 -19.375 17.070312 -18.65625 18.46875 -17.21875 C 19.875 -15.78125 20.578125 -13.773438 20.578125 -11.203125 L 20.578125 0 L 15.75 0 L 15.75 -10.546875 C 15.75 -12.066406 15.367188 -13.234375 14.609375 -14.046875 C 13.859375 -14.859375 12.828125 -15.265625 11.515625 -15.265625 C 10.179688 -15.265625 9.128906 -14.859375 8.359375 -14.046875 C 7.585938 -13.234375 7.203125 -12.066406 7.203125 -10.546875 L 7.203125 0 L 2.375 0 L 2.375 -19.09375 L 7.203125 -19.09375 L 7.203125 -16.71875 C 7.847656 -17.539062 8.671875 -18.1875 9.671875 -18.65625 C 10.671875 -19.132812 11.765625 -19.375 12.953125 -19.375 Z M 12.953125 -19.375 "/></g></g></g><g fill="#3e6606" fill-opacity="1"><g transform="translate(281.359573, 287.936508)"><g><path d="M 4.828125 -21.375 C 3.972656 -21.375 3.265625 -21.640625 2.703125 -22.171875 C 2.140625 -22.710938 1.859375 -23.390625 1.859375 -24.203125 C 1.859375 -25.003906 2.140625 -25.671875 2.703125 -26.203125 C 3.265625 -26.742188 3.972656 -27.015625 4.828125 -27.015625 C 5.671875 -27.015625 6.375 -26.742188 6.9375 -26.203125 C 7.507812 -25.671875 7.796875 -25.003906 7.796875 -24.203125 C 7.796875 -23.390625 7.507812 -22.710938 6.9375 -22.171875 C 6.375 -21.640625 5.671875 -21.375 4.828125 -21.375 Z M 7.203125 -19.09375 L 7.203125 0 L 2.375 0 L 2.375 -19.09375 Z M 7.203125 -19.09375 "/></g></g></g><g fill="#3e6606" fill-opacity="1"><g transform="translate(290.94104, 287.936508)"><g><path d="M 12.953125 -19.375 C 15.234375 -19.375 17.070312 -18.65625 18.46875 -17.21875 C 19.875 -15.78125 20.578125 -13.773438 20.578125 -11.203125 L 20.578125 0 L 15.75 0 L 15.75 -10.546875 C 15.75 -12.066406 15.367188 -13.234375 14.609375 -14.046875 C 13.859375 -14.859375 12.828125 -15.265625 11.515625 -15.265625 C 10.179688 -15.265625 9.128906 -14.859375 8.359375 -14.046875 C 7.585938 -13.234375 7.203125 -12.066406 7.203125 -10.546875 L 7.203125 0 L 2.375 0 L 2.375 -19.09375 L 7.203125 -19.09375 L 7.203125 -16.71875 C 7.847656 -17.539062 8.671875 -18.1875 9.671875 -18.65625 C 10.671875 -19.132812 11.765625 -19.375 12.953125 -19.375 Z M 12.953125 -19.375 "/></g></g></g><g fill="#3e6606" fill-opacity="1"><g transform="translate(313.722862, 287.936508)"><g><path d="M 9.859375 -19.40625 C 11.285156 -19.40625 12.535156 -19.125 13.609375 -18.5625 C 14.691406 -18 15.546875 -17.269531 16.171875 -16.375 L 16.171875 -19.09375 L 21.03125 -19.09375 L 21.03125 0.140625 C 21.03125 1.910156 20.671875 3.488281 19.953125 4.875 C 19.242188 6.269531 18.175781 7.375 16.75 8.1875 C 15.320312 9 13.597656 9.40625 11.578125 9.40625 C 8.867188 9.40625 6.644531 8.773438 4.90625 7.515625 C 3.175781 6.253906 2.195312 4.53125 1.96875 2.34375 L 6.75 2.34375 C 7.007812 3.21875 7.554688 3.910156 8.390625 4.421875 C 9.234375 4.941406 10.25 5.203125 11.4375 5.203125 C 12.84375 5.203125 13.984375 4.78125 14.859375 3.9375 C 15.734375 3.101562 16.171875 1.835938 16.171875 0.140625 L 16.171875 -2.828125 C 15.546875 -1.929688 14.6875 -1.179688 13.59375 -0.578125 C 12.5 0.015625 11.253906 0.3125 9.859375 0.3125 C 8.242188 0.3125 6.769531 -0.0976562 5.4375 -0.921875 C 4.113281 -1.753906 3.066406 -2.921875 2.296875 -4.421875 C 1.523438 -5.929688 1.140625 -7.660156 1.140625 -9.609375 C 1.140625 -11.546875 1.523438 -13.257812 2.296875 -14.75 C 3.066406 -16.25 4.109375 -17.398438 5.421875 -18.203125 C 6.742188 -19.003906 8.222656 -19.40625 9.859375 -19.40625 Z M 16.171875 -9.546875 C 16.171875 -10.722656 15.9375 -11.726562 15.46875 -12.5625 C 15.007812 -13.40625 14.390625 -14.050781 13.609375 -14.5 C 12.828125 -14.945312 11.988281 -15.171875 11.09375 -15.171875 C 10.195312 -15.171875 9.367188 -14.953125 8.609375 -14.515625 C 7.859375 -14.078125 7.242188 -13.4375 6.765625 -12.59375 C 6.296875 -11.757812 6.0625 -10.765625 6.0625 -9.609375 C 6.0625 -8.460938 6.296875 -7.457031 6.765625 -6.59375 C 7.242188 -5.738281 7.867188 -5.078125 8.640625 -4.609375 C 9.410156 -4.148438 10.226562 -3.921875 11.09375 -3.921875 C 11.988281 -3.921875 12.828125 -4.144531 13.609375 -4.59375 C 14.390625 -5.050781 15.007812 -5.695312 15.46875 -6.53125 C 15.9375 -7.375 16.171875 -8.378906 16.171875 -9.546875 Z M 16.171875 -9.546875 "/></g></g></g><g fill="#1f3400" fill-opacity="1"><g transform="translate(135.679045, 305.519219)"><g><path d="M 0.4375 -3.484375 C 0.4375 -4.171875 0.585938 -4.785156 0.890625 -5.328125 C 1.191406 -5.867188 1.609375 -6.289062 2.140625 -6.59375 C 2.671875 -6.90625 3.257812 -7.0625 3.90625 -7.0625 C 4.664062 -7.0625 5.328125 -6.875 5.890625 -6.5 C 6.460938 -6.132812 6.878906 -5.617188 7.140625 -4.953125 L 6.046875 -4.953125 C 5.859375 -5.367188 5.582031 -5.691406 5.21875 -5.921875 C 4.851562 -6.148438 4.414062 -6.265625 3.90625 -6.265625 C 3.425781 -6.265625 2.988281 -6.148438 2.59375 -5.921875 C 2.207031 -5.691406 1.90625 -5.367188 1.6875 -4.953125 C 1.46875 -4.535156 1.359375 -4.046875 1.359375 -3.484375 C 1.359375 -2.929688 1.46875 -2.445312 1.6875 -2.03125 C 1.90625 -1.613281 2.207031 -1.289062 2.59375 -1.0625 C 2.988281 -0.84375 3.425781 -0.734375 3.90625 -0.734375 C 4.414062 -0.734375 4.851562 -0.84375 5.21875 -1.0625 C 5.582031 -1.289062 5.859375 -1.613281 6.046875 -2.03125 L 7.140625 -2.03125 C 6.878906 -1.363281 6.460938 -0.847656 5.890625 -0.484375 C 5.328125 -0.117188 4.664062 0.0625 3.90625 0.0625 C 3.257812 0.0625 2.671875 -0.0859375 2.140625 -0.390625 C 1.609375 -0.691406 1.191406 -1.113281 0.890625 -1.65625 C 0.585938 -2.195312 0.4375 -2.804688 0.4375 -3.484375 Z M 0.4375 -3.484375 "/></g></g></g><g fill="#1f3400" fill-opacity="1"><g transform="translate(143.396002, 305.519219)"><g><path d="M 3.15625 0.09375 C 2.644531 0.09375 2.179688 -0.0195312 1.765625 -0.25 C 1.347656 -0.488281 1.019531 -0.820312 0.78125 -1.25 C 0.550781 -1.6875 0.4375 -2.1875 0.4375 -2.75 C 0.4375 -3.3125 0.554688 -3.804688 0.796875 -4.234375 C 1.035156 -4.660156 1.363281 -4.988281 1.78125 -5.21875 C 2.207031 -5.445312 2.679688 -5.5625 3.203125 -5.5625 C 3.722656 -5.5625 4.191406 -5.445312 4.609375 -5.21875 C 5.023438 -4.988281 5.351562 -4.660156 5.59375 -4.234375 C 5.84375 -3.804688 5.96875 -3.3125 5.96875 -2.75 C 5.96875 -2.1875 5.84375 -1.6875 5.59375 -1.25 C 5.34375 -0.820312 5.003906 -0.488281 4.578125 -0.25 C 4.148438 -0.0195312 3.675781 0.09375 3.15625 0.09375 Z M 3.15625 -0.703125 C 3.488281 -0.703125 3.796875 -0.78125 4.078125 -0.9375 C 4.367188 -1.09375 4.601562 -1.320312 4.78125 -1.625 C 4.957031 -1.9375 5.046875 -2.3125 5.046875 -2.75 C 5.046875 -3.1875 4.957031 -3.554688 4.78125 -3.859375 C 4.601562 -4.171875 4.375 -4.398438 4.09375 -4.546875 C 3.820312 -4.703125 3.519531 -4.78125 3.1875 -4.78125 C 2.851562 -4.78125 2.546875 -4.703125 2.265625 -4.546875 C 1.992188 -4.398438 1.773438 -4.171875 1.609375 -3.859375 C 1.441406 -3.554688 1.359375 -3.1875 1.359375 -2.75 C 1.359375 -2.300781 1.4375 -1.921875 1.59375 -1.609375 C 1.757812 -1.304688 1.976562 -1.078125 2.25 -0.921875 C 2.53125 -0.773438 2.832031 -0.703125 3.15625 -0.703125 Z M 3.15625 -0.703125 "/></g></g></g><g fill="#1f3400" fill-opacity="1"><g transform="translate(149.793478, 305.519219)"><g><path d="M 1.6875 -7.40625 L 1.6875 0 L 0.765625 0 L 0.765625 -7.40625 Z M 1.6875 -7.40625 "/></g></g></g><g fill="#1f3400" fill-opacity="1"><g transform="translate(152.252504, 305.519219)"><g><path d="M 1.875 -4.734375 L 1.875 -1.5 C 1.875 -1.226562 1.929688 -1.035156 2.046875 -0.921875 C 2.160156 -0.816406 2.359375 -0.765625 2.640625 -0.765625 L 3.3125 -0.765625 L 3.3125 0 L 2.484375 0 C 1.984375 0 1.601562 -0.113281 1.34375 -0.34375 C 1.09375 -0.582031 0.96875 -0.96875 0.96875 -1.5 L 0.96875 -4.734375 L 0.265625 -4.734375 L 0.265625 -5.484375 L 0.96875 -5.484375 L 0.96875 -6.859375 L 1.875 -6.859375 L 1.875 -5.484375 L 3.3125 -5.484375 L 3.3125 -4.734375 Z M 1.875 -4.734375 "/></g></g></g><g fill="#1f3400" fill-opacity="1"><g transform="translate(155.891073, 305.519219)"><g><path d="M 1.234375 -6.375 C 1.066406 -6.375 0.921875 -6.429688 0.796875 -6.546875 C 0.679688 -6.671875 0.625 -6.816406 0.625 -6.984375 C 0.625 -7.160156 0.679688 -7.304688 0.796875 -7.421875 C 0.921875 -7.546875 1.066406 -7.609375 1.234375 -7.609375 C 1.398438 -7.609375 1.539062 -7.546875 1.65625 -7.421875 C 1.78125 -7.304688 1.84375 -7.160156 1.84375 -6.984375 C 1.84375 -6.816406 1.78125 -6.671875 1.65625 -6.546875 C 1.539062 -6.429688 1.398438 -6.375 1.234375 -6.375 Z M 1.6875 -5.484375 L 1.6875 0 L 0.765625 0 L 0.765625 -5.484375 Z M 1.6875 -5.484375 "/></g></g></g><g fill="#1f3400" fill-opacity="1"><g transform="translate(158.350099, 305.519219)"><g><path d="M 2.8125 -0.84375 L 4.515625 -5.484375 L 5.484375 -5.484375 L 3.328125 0 L 2.265625 0 L 0.125 -5.484375 L 1.09375 -5.484375 Z M 2.8125 -0.84375 "/></g></g></g><g fill="#1f3400" fill-opacity="1"><g transform="translate(163.957887, 305.519219)"><g><path d="M 0.4375 -2.765625 C 0.4375 -3.316406 0.546875 -3.804688 0.765625 -4.234375 C 0.992188 -4.660156 1.304688 -4.988281 1.703125 -5.21875 C 2.097656 -5.445312 2.539062 -5.5625 3.03125 -5.5625 C 3.507812 -5.5625 3.925781 -5.457031 4.28125 -5.25 C 4.632812 -5.050781 4.894531 -4.796875 5.0625 -4.484375 L 5.0625 -5.484375 L 5.984375 -5.484375 L 5.984375 0 L 5.0625 0 L 5.0625 -1.015625 C 4.882812 -0.703125 4.617188 -0.4375 4.265625 -0.21875 C 3.910156 -0.0078125 3.492188 0.09375 3.015625 0.09375 C 2.535156 0.09375 2.097656 -0.0234375 1.703125 -0.265625 C 1.304688 -0.503906 0.992188 -0.84375 0.765625 -1.28125 C 0.546875 -1.71875 0.4375 -2.210938 0.4375 -2.765625 Z M 5.0625 -2.75 C 5.0625 -3.164062 4.976562 -3.523438 4.8125 -3.828125 C 4.644531 -4.140625 4.421875 -4.375 4.140625 -4.53125 C 3.859375 -4.695312 3.546875 -4.78125 3.203125 -4.78125 C 2.867188 -4.78125 2.5625 -4.695312 2.28125 -4.53125 C 2 -4.375 1.773438 -4.140625 1.609375 -3.828125 C 1.441406 -3.523438 1.359375 -3.171875 1.359375 -2.765625 C 1.359375 -2.335938 1.441406 -1.96875 1.609375 -1.65625 C 1.773438 -1.351562 2 -1.117188 2.28125 -0.953125 C 2.5625 -0.785156 2.867188 -0.703125 3.203125 -0.703125 C 3.546875 -0.703125 3.859375 -0.785156 4.140625 -0.953125 C 4.421875 -1.117188 4.644531 -1.351562 4.8125 -1.65625 C 4.976562 -1.96875 5.0625 -2.332031 5.0625 -2.75 Z M 5.0625 -2.75 "/></g></g></g><g fill="#1f3400" fill-opacity="1"><g transform="translate(170.715222, 305.519219)"><g/></g></g><g fill="#1f3400" fill-opacity="1"><g transform="translate(173.384167, 305.519219)"><g><path d="M 1.234375 -6.375 C 1.066406 -6.375 0.921875 -6.429688 0.796875 -6.546875 C 0.679688 -6.671875 0.625 -6.816406 0.625 -6.984375 C 0.625 -7.160156 0.679688 -7.304688 0.796875 -7.421875 C 0.921875 -7.546875 1.066406 -7.609375 1.234375 -7.609375 C 1.398438 -7.609375 1.539062 -7.546875 1.65625 -7.421875 C 1.78125 -7.304688 1.84375 -7.160156 1.84375 -6.984375 C 1.84375 -6.816406 1.78125 -6.671875 1.65625 -6.546875 C 1.539062 -6.429688 1.398438 -6.375 1.234375 -6.375 Z M 1.6875 -5.484375 L 1.6875 0 L 0.765625 0 L 0.765625 -5.484375 Z M 1.6875 -5.484375 "/></g></g></g><g fill="#1f3400" fill-opacity="1"><g transform="translate(175.843193, 305.519219)"><g><path d="M 1.6875 -7.40625 L 1.6875 0 L 0.765625 0 L 0.765625 -7.40625 Z M 1.6875 -7.40625 "/></g></g></g><g fill="#1f3400" fill-opacity="1"><g transform="translate(178.302219, 305.519219)"><g/></g></g><g fill="#1f3400" fill-opacity="1"><g transform="translate(180.971165, 305.519219)"><g><path d="M 1.875 -4.734375 L 1.875 -1.5 C 1.875 -1.226562 1.929688 -1.035156 2.046875 -0.921875 C 2.160156 -0.816406 2.359375 -0.765625 2.640625 -0.765625 L 3.3125 -0.765625 L 3.3125 0 L 2.484375 0 C 1.984375 0 1.601562 -0.113281 1.34375 -0.34375 C 1.09375 -0.582031 0.96875 -0.96875 0.96875 -1.5 L 0.96875 -4.734375 L 0.265625 -4.734375 L 0.265625 -5.484375 L 0.96875 -5.484375 L 0.96875 -6.859375 L 1.875 -6.859375 L 1.875 -5.484375 L 3.3125 -5.484375 L 3.3125 -4.734375 Z M 1.875 -4.734375 "/></g></g></g><g fill="#1f3400" fill-opacity="1"><g transform="translate(184.609733, 305.519219)"><g><path d="M 5.625 -5.484375 L 5.625 0 L 4.71875 0 L 4.71875 -0.8125 C 4.539062 -0.53125 4.296875 -0.3125 3.984375 -0.15625 C 3.679688 0 3.34375 0.078125 2.96875 0.078125 C 2.539062 0.078125 2.15625 -0.0078125 1.8125 -0.1875 C 1.476562 -0.363281 1.210938 -0.628906 1.015625 -0.984375 C 0.816406 -1.335938 0.71875 -1.765625 0.71875 -2.265625 L 0.71875 -5.484375 L 1.625 -5.484375 L 1.625 -2.390625 C 1.625 -1.847656 1.757812 -1.429688 2.03125 -1.140625 C 2.300781 -0.847656 2.675781 -0.703125 3.15625 -0.703125 C 3.632812 -0.703125 4.015625 -0.851562 4.296875 -1.15625 C 4.578125 -1.457031 4.71875 -1.894531 4.71875 -2.46875 L 4.71875 -5.484375 Z M 5.625 -5.484375 "/></g></g></g><g fill="#1f3400" fill-opacity="1"><g transform="translate(191.007209, 305.519219)"><g><path d="M 3.15625 0.09375 C 2.644531 0.09375 2.179688 -0.0195312 1.765625 -0.25 C 1.347656 -0.488281 1.019531 -0.820312 0.78125 -1.25 C 0.550781 -1.6875 0.4375 -2.1875 0.4375 -2.75 C 0.4375 -3.3125 0.554688 -3.804688 0.796875 -4.234375 C 1.035156 -4.660156 1.363281 -4.988281 1.78125 -5.21875 C 2.207031 -5.445312 2.679688 -5.5625 3.203125 -5.5625 C 3.722656 -5.5625 4.191406 -5.445312 4.609375 -5.21875 C 5.023438 -4.988281 5.351562 -4.660156 5.59375 -4.234375 C 5.84375 -3.804688 5.96875 -3.3125 5.96875 -2.75 C 5.96875 -2.1875 5.84375 -1.6875 5.59375 -1.25 C 5.34375 -0.820312 5.003906 -0.488281 4.578125 -0.25 C 4.148438 -0.0195312 3.675781 0.09375 3.15625 0.09375 Z M 3.15625 -0.703125 C 3.488281 -0.703125 3.796875 -0.78125 4.078125 -0.9375 C 4.367188 -1.09375 4.601562 -1.320312 4.78125 -1.625 C 4.957031 -1.9375 5.046875 -2.3125 5.046875 -2.75 C 5.046875 -3.1875 4.957031 -3.554688 4.78125 -3.859375 C 4.601562 -4.171875 4.375 -4.398438 4.09375 -4.546875 C 3.820312 -4.703125 3.519531 -4.78125 3.1875 -4.78125 C 2.851562 -4.78125 2.546875 -4.703125 2.265625 -4.546875 C 1.992188 -4.398438 1.773438 -4.171875 1.609375 -3.859375 C 1.441406 -3.554688 1.359375 -3.1875 1.359375 -2.75 C 1.359375 -2.300781 1.4375 -1.921875 1.59375 -1.609375 C 1.757812 -1.304688 1.976562 -1.078125 2.25 -0.921875 C 2.53125 -0.773438 2.832031 -0.703125 3.15625 -0.703125 Z M 3.15625 -0.703125 "/></g></g></g><g fill="#1f3400" fill-opacity="1"><g transform="translate(197.404685, 305.519219)"><g/></g></g><g fill="#1f3400" fill-opacity="1"><g transform="translate(200.07363, 305.519219)"><g><path d="M 7.359375 -5.578125 C 7.785156 -5.578125 8.164062 -5.488281 8.5 -5.3125 C 8.832031 -5.132812 9.09375 -4.867188 9.28125 -4.515625 C 9.476562 -4.160156 9.578125 -3.734375 9.578125 -3.234375 L 9.578125 0 L 8.6875 0 L 8.6875 -3.09375 C 8.6875 -3.644531 8.550781 -4.066406 8.28125 -4.359375 C 8.007812 -4.648438 7.644531 -4.796875 7.1875 -4.796875 C 6.707031 -4.796875 6.328125 -4.640625 6.046875 -4.328125 C 5.765625 -4.023438 5.625 -3.585938 5.625 -3.015625 L 5.625 0 L 4.734375 0 L 4.734375 -3.09375 C 4.734375 -3.644531 4.597656 -4.066406 4.328125 -4.359375 C 4.054688 -4.648438 3.691406 -4.796875 3.234375 -4.796875 C 2.753906 -4.796875 2.375 -4.640625 2.09375 -4.328125 C 1.820312 -4.023438 1.6875 -3.585938 1.6875 -3.015625 L 1.6875 0 L 0.765625 0 L 0.765625 -5.484375 L 1.6875 -5.484375 L 1.6875 -4.6875 C 1.863281 -4.976562 2.101562 -5.195312 2.40625 -5.34375 C 2.707031 -5.5 3.039062 -5.578125 3.40625 -5.578125 C 3.863281 -5.578125 4.269531 -5.472656 4.625 -5.265625 C 4.976562 -5.054688 5.242188 -4.753906 5.421875 -4.359375 C 5.578125 -4.742188 5.828125 -5.039062 6.171875 -5.25 C 6.523438 -5.46875 6.921875 -5.578125 7.359375 -5.578125 Z M 7.359375 -5.578125 "/></g></g></g><g fill="#1f3400" fill-opacity="1"><g transform="translate(210.36957, 305.519219)"><g><path d="M 3.15625 0.09375 C 2.644531 0.09375 2.179688 -0.0195312 1.765625 -0.25 C 1.347656 -0.488281 1.019531 -0.820312 0.78125 -1.25 C 0.550781 -1.6875 0.4375 -2.1875 0.4375 -2.75 C 0.4375 -3.3125 0.554688 -3.804688 0.796875 -4.234375 C 1.035156 -4.660156 1.363281 -4.988281 1.78125 -5.21875 C 2.207031 -5.445312 2.679688 -5.5625 3.203125 -5.5625 C 3.722656 -5.5625 4.191406 -5.445312 4.609375 -5.21875 C 5.023438 -4.988281 5.351562 -4.660156 5.59375 -4.234375 C 5.84375 -3.804688 5.96875 -3.3125 5.96875 -2.75 C 5.96875 -2.1875 5.84375 -1.6875 5.59375 -1.25 C 5.34375 -0.820312 5.003906 -0.488281 4.578125 -0.25 C 4.148438 -0.0195312 3.675781 0.09375 3.15625 0.09375 Z M 3.15625 -0.703125 C 3.488281 -0.703125 3.796875 -0.78125 4.078125 -0.9375 C 4.367188 -1.09375 4.601562 -1.320312 4.78125 -1.625 C 4.957031 -1.9375 5.046875 -2.3125 5.046875 -2.75 C 5.046875 -3.1875 4.957031 -3.554688 4.78125 -3.859375 C 4.601562 -4.171875 4.375 -4.398438 4.09375 -4.546875 C 3.820312 -4.703125 3.519531 -4.78125 3.1875 -4.78125 C 2.851562 -4.78125 2.546875 -4.703125 2.265625 -4.546875 C 1.992188 -4.398438 1.773438 -4.171875 1.609375 -3.859375 C 1.441406 -3.554688 1.359375 -3.1875 1.359375 -2.75 C 1.359375 -2.300781 1.4375 -1.921875 1.59375 -1.609375 C 1.757812 -1.304688 1.976562 -1.078125 2.25 -0.921875 C 2.53125 -0.773438 2.832031 -0.703125 3.15625 -0.703125 Z M 3.15625 -0.703125 "/></g></g></g><g fill="#1f3400" fill-opacity="1"><g transform="translate(216.767045, 305.519219)"><g><path d="M 3.4375 -5.578125 C 4.101562 -5.578125 4.644531 -5.375 5.0625 -4.96875 C 5.476562 -4.570312 5.6875 -3.992188 5.6875 -3.234375 L 5.6875 0 L 4.78125 0 L 4.78125 -3.09375 C 4.78125 -3.644531 4.640625 -4.066406 4.359375 -4.359375 C 4.085938 -4.648438 3.71875 -4.796875 3.25 -4.796875 C 2.769531 -4.796875 2.390625 -4.644531 2.109375 -4.34375 C 1.828125 -4.039062 1.6875 -3.601562 1.6875 -3.03125 L 1.6875 0 L 0.765625 0 L 0.765625 -5.484375 L 1.6875 -5.484375 L 1.6875 -4.703125 C 1.863281 -4.984375 2.101562 -5.195312 2.40625 -5.34375 C 2.71875 -5.5 3.0625 -5.578125 3.4375 -5.578125 Z M 3.4375 -5.578125 "/></g></g></g><g fill="#1f3400" fill-opacity="1"><g transform="translate(223.164521, 305.519219)"><g><path d="M 0.4375 -2.765625 C 0.4375 -3.316406 0.546875 -3.804688 0.765625 -4.234375 C 0.992188 -4.660156 1.304688 -4.988281 1.703125 -5.21875 C 2.097656 -5.445312 2.546875 -5.5625 3.046875 -5.5625 C 3.472656 -5.5625 3.867188 -5.460938 4.234375 -5.265625 C 4.597656 -5.078125 4.875 -4.820312 5.0625 -4.5 L 5.0625 -7.40625 L 5.984375 -7.40625 L 5.984375 0 L 5.0625 0 L 5.0625 -1.03125 C 4.882812 -0.707031 4.617188 -0.4375 4.265625 -0.21875 C 3.910156 -0.0078125 3.5 0.09375 3.03125 0.09375 C 2.539062 0.09375 2.097656 -0.0234375 1.703125 -0.265625 C 1.304688 -0.503906 0.992188 -0.84375 0.765625 -1.28125 C 0.546875 -1.71875 0.4375 -2.210938 0.4375 -2.765625 Z M 5.0625 -2.75 C 5.0625 -3.164062 4.976562 -3.523438 4.8125 -3.828125 C 4.644531 -4.140625 4.421875 -4.375 4.140625 -4.53125 C 3.859375 -4.695312 3.546875 -4.78125 3.203125 -4.78125 C 2.867188 -4.78125 2.5625 -4.695312 2.28125 -4.53125 C 2 -4.375 1.773438 -4.140625 1.609375 -3.828125 C 1.441406 -3.523438 1.359375 -3.171875 1.359375 -2.765625 C 1.359375 -2.335938 1.441406 -1.96875 1.609375 -1.65625 C 1.773438 -1.351562 2 -1.117188 2.28125 -0.953125 C 2.5625 -0.785156 2.867188 -0.703125 3.203125 -0.703125 C 3.546875 -0.703125 3.859375 -0.785156 4.140625 -0.953125 C 4.421875 -1.117188 4.644531 -1.351562 4.8125 -1.65625 C 4.976562 -1.96875 5.0625 -2.332031 5.0625 -2.75 Z M 5.0625 -2.75 "/></g></g></g><g fill="#1f3400" fill-opacity="1"><g transform="translate(229.921857, 305.519219)"><g><path d="M 3.15625 0.09375 C 2.644531 0.09375 2.179688 -0.0195312 1.765625 -0.25 C 1.347656 -0.488281 1.019531 -0.820312 0.78125 -1.25 C 0.550781 -1.6875 0.4375 -2.1875 0.4375 -2.75 C 0.4375 -3.3125 0.554688 -3.804688 0.796875 -4.234375 C 1.035156 -4.660156 1.363281 -4.988281 1.78125 -5.21875 C 2.207031 -5.445312 2.679688 -5.5625 3.203125 -5.5625 C 3.722656 -5.5625 4.191406 -5.445312 4.609375 -5.21875 C 5.023438 -4.988281 5.351562 -4.660156 5.59375 -4.234375 C 5.84375 -3.804688 5.96875 -3.3125 5.96875 -2.75 C 5.96875 -2.1875 5.84375 -1.6875 5.59375 -1.25 C 5.34375 -0.820312 5.003906 -0.488281 4.578125 -0.25 C 4.148438 -0.0195312 3.675781 0.09375 3.15625 0.09375 Z M 3.15625 -0.703125 C 3.488281 -0.703125 3.796875 -0.78125 4.078125 -0.9375 C 4.367188 -1.09375 4.601562 -1.320312 4.78125 -1.625 C 4.957031 -1.9375 5.046875 -2.3125 5.046875 -2.75 C 5.046875 -3.1875 4.957031 -3.554688 4.78125 -3.859375 C 4.601562 -4.171875 4.375 -4.398438 4.09375 -4.546875 C 3.820312 -4.703125 3.519531 -4.78125 3.1875 -4.78125 C 2.851562 -4.78125 2.546875 -4.703125 2.265625 -4.546875 C 1.992188 -4.398438 1.773438 -4.171875 1.609375 -3.859375 C 1.441406 -3.554688 1.359375 -3.1875 1.359375 -2.75 C 1.359375 -2.300781 1.4375 -1.921875 1.59375 -1.609375 C 1.757812 -1.304688 1.976562 -1.078125 2.25 -0.921875 C 2.53125 -0.773438 2.832031 -0.703125 3.15625 -0.703125 Z M 3.15625 -0.703125 "/></g></g></g><g fill="#1f3400" fill-opacity="1"><g transform="translate(236.319332, 305.519219)"><g><path d="M 1.953125 -6.96875 L 1.84375 -1.96875 L 1.078125 -1.96875 L 0.96875 -6.96875 Z M 1.5 0.0625 C 1.320312 0.0625 1.171875 0.00390625 1.046875 -0.109375 C 0.929688 -0.234375 0.875 -0.382812 0.875 -0.5625 C 0.875 -0.726562 0.929688 -0.875 1.046875 -1 C 1.171875 -1.125 1.320312 -1.1875 1.5 -1.1875 C 1.664062 -1.1875 1.804688 -1.125 1.921875 -1 C 2.035156 -0.875 2.09375 -0.726562 2.09375 -0.5625 C 2.09375 -0.382812 2.035156 -0.234375 1.921875 -0.109375 C 1.804688 0.00390625 1.664062 0.0625 1.5 0.0625 Z M 1.5 0.0625 "/></g></g></g></svg>